<?xml version="1.0" standalone="no"?>
<!DOCTYPE svg PUBLIC "-//W3C//DTD SVG 20010904//EN"
 "http://www.w3.org/TR/2001/REC-SVG-20010904/DTD/svg10.dtd">
<svg version="1.0" xmlns="http://www.w3.org/2000/svg"
 width="374.000000pt" height="374.000000pt" viewBox="0 0 374.000000 374.000000"
 preserveAspectRatio="xMidYMid meet">
<metadata>
Created by potrace 1.11, written by Peter Selinger 2001-2013
</metadata>
<g transform="translate(0.000000,374.000000) scale(0.100000,-0.100000)"
fill="#000000" stroke="none">
<path d="M885 3589 c-135 -14 -226 -38 -325 -87 -77 -38 -110 -61 -176 -127
-167 -166 -217 -302 -234 -640 -5 -99 -9 -490 -9 -870 0 -379 4 -771 9 -870
17 -339 67 -474 235 -642 68 -67 99 -89 176 -126 193 -93 248 -97 1319 -97
1071 0 1126 4 1319 97 77 37 108 59 176 126 168 168 218 303 235 642 12 233
12 1507 0 1740 -17 338 -67 474 -234 640 -132 132 -272 190 -515 214 -123 13
-1855 13 -1976 0z m1092 -496 c-4 -21 -9 -75 -13 -119 l-7 -82 -141 -5 c-274
-10 -487 -99 -680 -286 -97 -95 -152 -170 -210 -292 -78 -161 -110 -345 -94
-537 28 -340 245 -657 554 -811 510 -253 1112 -52 1371 459 60 117 103 288
103 407 l0 63 127 0 126 0 -6 -102 c-23 -365 -205 -705 -496 -924 -498 -374
-1175 -340 -1630 83 -183 169 -308 386 -372 643 -32 128 -34 410 -5 535 79
337 263 612 530 790 226 150 431 212 705 214 l144 1 -6 -37z m933 -304 c90
-73 147 -126 143 -133 -5 -8 -1116 -1328 -1154 -1370 -6 -7 -394 301 -726 576
l-83 69 132 154 c72 85 134 155 138 155 4 0 112 -86 240 -190 181 -149 235
-188 246 -179 7 6 210 244 451 530 269 320 442 518 450 515 7 -3 81 -60 163
-127z"/>
</g>
</svg>
