<svg version="1" xmlns="http://www.w3.org/2000/svg" width="1333.333" height="1333.333" viewBox="0 0 1000.000000 1000.000000"><path d="M0 500.5V689h95.5v-64.5c0-35.5.2-64.5.5-64.6.3 0 18.5-.2 40.5-.3 22-.2 41.4-.6 43-.9 1.7-.3 5.3-.9 8-1.2 2.8-.3 8.4-1.4 12.5-2.3l7.5-1.7 9.2-28c5-15.4 13.1-40.2 17.8-55 4.8-14.9 9.6-29.5 10.7-32.5 1.1-3 2.2-6.6 2.4-7.9.3-1.4.7-2.7.9-3.1.2-.3 3.8-11.4 8-24.6 4.2-13.1 8-24.8 8.5-25.9.4-1.1 1.5-4 2.2-6.5l1.3-4.5-4.3-6c-5.3-7.3-14.7-17.1-21.6-22.4-14.1-10.8-36.3-19.9-55.6-22.7-2.5-.3-7-1-10-1.4-3-.4-44.1-.9-91.2-.9L0 311.9v188.6zm149.5-114.2c18.4 3.4 29.3 10.5 35.9 23.8 6.3 12.5 7.3 31 2.5 45.8-5.7 17.7-18.7 26.9-41.8 29.7-5.7.7-47.8 1.3-49.6.7-.7-.2-1-17.8-.9-50.6.1-27.6.2-50.4.3-50.6.1-.4 50.9.7 53.6 1.2zM442.5 313.2c-2.7 8.4-7.2 22.1-17 52.3-6.4 19.8-13 39.8-14.5 44.5-2.5 7.5-13.8 42.2-33.2 102-8.3 25.5-13.9 42.4-14.3 42.8-.2.2-6.3-11.7-13.7-26.5-7.4-14.7-19.9-39.6-27.8-55.3l-14.3-28.4-2.3 6.9c-1.2 3.9-6.5 20.3-11.8 36.5-5.3 16.2-11 33.8-12.7 39-1.7 5.2-5.1 15.8-7.5 23.5-2.5 7.7-7.2 22.2-10.5 32.3L257 601l2.2 3.8c1.3 2.1 2.8 4.7 3.5 5.7.6 1.1 6.3 10.7 12.5 21.4s12.4 21.4 13.8 23.7c1.4 2.3 4.5 7.7 7 11.9 2.5 4.3 5.2 9 6 10.4.9 1.4 2.6 4.5 4 6.8l2.4 4.3h99.2l2.9-8.8c1.6-4.8 3-9.2 3.1-9.7.1-.6 2.5-8 5.3-16.5 19.1-57.8 54.3-165.1 57.5-175.2 1.1-3.7 2.4-6.8 2.7-6.8.3 0 1.5 3 2.7 6.7 1.9 6.3 3.8 12.6 17.3 55.5 2.8 9 6.1 19.7 7.4 23.8 1.3 4.1 5.8 18.5 10 32 15 48.1 17.7 56.6 19.1 61.5.8 2.7 1.9 5.9 2.3 7 .5 1.1 2.8 8.4 5.2 16.2l4.2 14.3h99.5l8.7-21.8c4.8-11.9 9.3-23.1 10-24.7.7-1.7 3.7-8.9 6.5-16 12-30.2 28.1-70.1 29-72 .5-1.1 7.3-18 15-37.5 7.8-19.5 14.8-36.9 15.5-38.5.8-1.7 6.9-16.7 13.6-33.5 6.7-16.8 12.7-31.9 13.5-33.5.7-1.7 6.8-16.7 13.4-33.5 6.7-16.8 13-32.4 14.1-34.7 1-2.3 1.9-4.7 1.9-5.3 0-.5.5-1.8 1-2.8 1.4-2.3 9-21.3 9-22.4 0-.4-22.5-.8-50.1-.8h-50l-2 4.7c-1.2 2.7-2.7 6.1-3.4 7.8-.7 1.6-8.3 19.6-16.9 40-8.7 20.3-16.3 38.3-17.1 40-.7 1.6-6.5 15.1-12.8 30-17.4 40.8-17.8 41.8-19.2 45-.7 1.6-8.3 19.4-16.8 39.5-8.6 20.1-15.8 35.8-16.1 35-1.4-4.2-5.8-18.7-6.1-20.1-.2-.9-2.1-7.5-4.3-14.5-2.2-7.1-4.7-15.2-5.5-17.9-.9-2.8-4.8-15.6-8.7-28.5-3.9-12.9-8.4-27.8-10-33-1.5-5.2-7.3-24.4-12.8-42.5-5.5-18.2-13.6-44.7-17.9-59l-7.9-26-38.7-.3c-30.5-.2-38.8 0-39.2 1zM856.6 315.9c-.9 1.7-1.6 3.2-1.5 3.3 0 .2-.4 1.4-.9 2.8-4.6 11.7-15.8 40.2-24.7 62.5-5.9 14.8-12.9 32.7-15.6 39.7l-5 12.6 1.4 4.9c.9 2.6 5.9 16.9 11.2 31.8 5.3 14.8 12.1 34 15.2 42.5 3 8.5 6.8 19 8.4 23.3 1.6 4.3 2.9 8.2 2.9 8.5 0 .4-18.7.7-41.6.7h-41.7L761 558c-2 5.2-7.4 18.9-12 30.5-4.6 11.5-9.1 23-10 25.5-1 2.5-2 5.2-2.4 6-.6 1.3 7.2 1.5 66.9 1.5 59.2 0 67.5.2 68.1 1.5.3.8 3.7 10.3 7.6 21 3.9 10.7 9.1 25.2 11.7 32.2l4.6 12.8h104.4l-1.3-3.8c-.8-2-4.6-12.3-8.6-22.7-6.3-16.8-31.7-84.3-58.2-155-4.9-13.2-9.4-24.9-9.8-26-.9-1.9-39.2-103.9-55.7-148-4.1-11-7.6-20.1-7.8-20.3-.2-.2-1.1 1-1.9 2.7z"/></svg>