<svg version="1" xmlns="http://www.w3.org/2000/svg" width="661.333" height="661.333" viewBox="0 0 496.000000 496.000000"><path d="M146.3 63.1c-29.4 3.5-49.8 17-61.9 41.2-4.6 8.9-7.1 20.3-8.4 36.7-1.3 17.1-1.3 179 0 192.3 2.1 21.1 6.8 34.3 16.9 47 12.8 16.1 28.7 24.3 53.6 27.9 13 1.9 192 1.9 205 0 24.9-3.6 40.8-11.8 53.6-27.9 10.1-12.7 14.8-25.9 16.9-47 1.3-13.3 1.3-175.2 0-192.3-1.8-23-6-35.8-16.4-49.6-9.6-12.8-25.5-22.7-42.8-26.7-9.1-2-11.1-2.1-109.3-2.3-55-.1-103.2.2-107.2.7zm205 79.9l15.4 12.5-5 6C331.5 197.8 250.5 293 249.9 293c-.9 0-78.3-62.8-78.7-63.8-.1-.6 18.1-22.9 25.4-31.1.3-.3 16.8 13 40.5 32.6l7.6 6.2 44.9-53.4c24.7-29.4 45.2-53.3 45.6-53.2.4.1 7.6 5.8 16.1 12.7zm20 98.2c-1.9 33-14.8 61.5-38.1 83.9-20 19.4-43.9 31-72.2 35-10 1.4-30.2.6-40.5-1.6-40.4-8.6-72-34.1-90.1-72.6l-2.2-4.7 9.1-3.5c5.1-1.9 9.9-3.8 10.8-4.2 1.3-.5 2.3.6 4.3 5.1 9.4 20.4 29.2 40 50.1 49.5 28.6 12.9 59.7 12.4 88-1.5 27-13.3 46.2-36.9 54-66.2.9-3.2 2.1-10.7 2.8-16.7l1.1-10.7h23.4l-.5 8.2z"/></svg>